<svg id="Ebene_1" data-name="Ebene 1" xmlns="http://www.w3.org/2000/svg" viewBox="0 0 1139.89 330.05"><defs><style>.cls-1{fill:#fff;}</style></defs><title>Logo_white</title><path class="cls-1" d="M161.72,272.72a59.51,59.51,0,0,1,13.74,4.73,130.12,130.12,0,0,1,12,7.19q8.74,5.28,12.74,5.28c2.3,0,4.06-1.34,5.28-4s2.18-6.86,2.91-12.56h8.55q-1.81,19.47-1.82,68.59h-8.55a91.76,91.76,0,0,0-8.28-31.56,57.73,57.73,0,0,0-20-23.47q-13.2-9-32.85-9A55.13,55.13,0,0,0,122,282.73a39.58,39.58,0,0,0-16.19,13.19A32.29,32.29,0,0,0,100,314.84q0,11.66,5.82,20.11a55.08,55.08,0,0,0,14.92,14.56q9.09,6.09,26,15.37,8.19,4.19,12,6.55,23.1,12.19,37.2,22a87,87,0,0,1,22.57,22.28Q227,428.2,227,444.57q0,20.39-10.19,34.66a62.19,62.19,0,0,1-27.57,21.47q-17.37,7.19-38.66,7.19-17.84,0-29.29-3.73a97.34,97.34,0,0,1-21.66-10.1q-8.37-5.28-12.73-5.27-3.46,0-5.28,3.91t-2.91,12.46H70.11q1.45-18.2,1.45-81.88h8.56q2.53,34.58,18.55,55.86T148,500.43a55.34,55.34,0,0,0,22.29-4.55,39.47,39.47,0,0,0,17-14q6.56-9.45,6.55-23.65a35.08,35.08,0,0,0-7.19-21.84,72.59,72.59,0,0,0-19-17q-11.83-7.55-33.11-18.46a274.69,274.69,0,0,1-33-19.56,79.19,79.19,0,0,1-21.37-22.29q-8.19-12.92-8.19-30,0-18.57,9.64-31.75a59.13,59.13,0,0,1,25.56-19.84A89.79,89.79,0,0,1,142,270.81,89.13,89.13,0,0,1,161.72,272.72Z" transform="translate(-70.11 -177.84)"/><path class="cls-1" d="M485.4,286.46a13.93,13.93,0,0,0-8.37,8.73q-2.28,6.38-2.27,20.38V463.13q0,14,2.27,20.38a13.89,13.89,0,0,0,8.37,8.73q6.09,2.37,19.56,2.91v7.46q-15.46-1.08-47.67-1.09-29.85,0-47.31,1.09v-7.46q13.47-.54,19.56-2.91a13.89,13.89,0,0,0,8.37-8.73q2.28-6.37,2.28-20.38V388.9H326.47v74.23q0,14,2.27,20.38a13.91,13.91,0,0,0,8.37,8.73q6.11,2.37,19.56,2.91v7.46q-17.1-1.08-47.3-1.09-32,0-47.67,1.09v-7.46q13.46-.54,19.56-2.91a13.93,13.93,0,0,0,8.37-8.73q2.26-6.37,2.27-20.38V315.57q0-14-2.27-20.38a14,14,0,0,0-8.37-8.73q-6.11-2.35-19.56-2.91v-7.46q15.45,1.1,47.67,1.09,30.19,0,47.3-1.09v7.46q-13.47.54-19.56,2.91a14,14,0,0,0-8.37,8.73q-2.28,6.38-2.27,20.38v65.87H440.19V315.57q0-14-2.28-20.38a13.93,13.93,0,0,0-8.37-8.73q-6.1-2.35-19.56-2.91v-7.46q17.47,1.1,47.31,1.09,32.2,0,47.67-1.09v7.46Q491.49,284.09,485.4,286.46Z" transform="translate(-70.11 -177.84)"/><path class="cls-1" d="M751.5,495.15v7.46q-15.29-1.08-39.85-1.09-32,0-47.85,1.09v-7.46q14-.54,20.38-3.45t6.36-10.19q0-6.74-5.09-17.65l-18.74-42.39h-91L563.18,449.3Q557,463.68,557,473.14q0,19.65,28.93,22v7.46q-11.1-1.08-33.85-1.09t-32.38,1.09v-7.46q9.82-2.55,17.1-11.37t13.46-23.2L632.5,274.27h6l87.15,197.05Q735.85,494.42,751.5,495.15ZM621.4,319.21,579,414h84.42Z" transform="translate(-70.11 -177.84)"/><path class="cls-1" d="M830.64,463.13q0,14,2.28,20.38a13.86,13.86,0,0,0,8.37,8.73q6.09,2.37,19.56,2.91v7.46q-17.11-1.08-47.31-1.09-32,0-47.67,1.09v-7.46q13.47-.54,19.56-2.91a13.91,13.91,0,0,0,8.37-8.73q2.26-6.37,2.27-20.38V315.57q0-14-2.27-20.38a14,14,0,0,0-8.37-8.73q-6.1-2.35-19.56-2.91v-7.46q15.46,1.1,45.49,1.09,6.54,0,40.39-.54l15.83-.19q26.74,0,45.3,7.83t27.84,21.83q9.28,14,9.28,32.57a71.77,71.77,0,0,1-8.73,34.21q-8.74,16.37-29.84,27.2t-55.68,10.82H830.64Zm10.19-176.94a14.61,14.61,0,0,0-8,9.37q-2.19,6.74-2.19,20v87.88h21.29q34.56,0,47.67-16.28t13.1-44.49q0-30.19-12.65-44.67T858.3,283.55Q846.66,283.55,840.83,286.19Z" transform="translate(-70.11 -177.84)"/><path class="cls-1" d="M1155.78,284.55a95.92,95.92,0,0,1,40,39.94Q1210,350.68,1210,387.08q0,35.66-14.65,63a106,106,0,0,1-40.75,42.58q-26.11,15.18-59.41,15.19-34.38,0-60.13-13.74a96,96,0,0,1-39.94-39.93Q980.93,428,980.93,391.63q0-35.67,14.65-63.14a105.41,105.41,0,0,1,40.66-42.57q26-15.1,59.32-15.11Q1129.94,270.81,1155.78,284.55Zm-101.71,7.28q-17.29,14.28-26.65,39.84t-9.37,58.5q0,33.12,10.46,58.4t28.38,38.94a64.07,64.07,0,0,0,39.76,13.65,61,61,0,0,0,40-14.29Q1154,472.59,1163.33,447t9.37-58.5q0-33.11-10.46-58.4t-28.38-38.94a64.06,64.06,0,0,0-39.76-13.64A61,61,0,0,0,1054.07,291.83Zm88.43-114q7.63,0,11.46,6.19a12.47,12.47,0,0,1,2.18,7.09q0,8-10,14.56-6.73,4.19-26.93,12.19-26.74,10.37-47.85,20.92l-2.73-4.91q17.83-13.47,40-33.66,14.19-13.28,22.56-18.74Q1137.22,177.84,1142.5,177.84Z" transform="translate(-70.11 -177.84)"/></svg>